<svg width="38" height="38" viewBox="0 0 38 38" fill="none" xmlns="http://www.w3.org/2000/svg">
<g clip-path="url(#clip0_160_2276)">
<path d="M36.2067 20.2507C35.7343 20.2507 35.2812 20.4383 34.9472 20.7724C34.6131 21.1064 34.4255 21.5595 34.4255 22.0319V29.2022C34.4239 30.5871 33.8731 31.9148 32.8938 32.894C31.9145 33.8733 30.5868 34.4241 29.202 34.4257H8.79773C7.41285 34.4241 6.08514 33.8733 5.10589 32.894C4.12663 31.9148 3.57579 30.5871 3.57422 29.2022V8.79798C3.57579 7.4131 4.12663 6.08539 5.10589 5.10613C6.08514 4.12687 7.41285 3.57603 8.79773 3.57446H15.968C16.4404 3.57446 16.8935 3.3868 17.2275 3.05275C17.5616 2.7187 17.7493 2.26563 17.7493 1.79321C17.7493 1.3208 17.5616 0.867728 17.2275 0.533679C16.8935 0.19963 16.4404 0.0119629 15.968 0.0119629H8.79773C6.46838 0.0147128 4.23522 0.941263 2.58812 2.58836C0.941019 4.23547 0.0144686 6.46863 0.0117188 8.79798V29.2022C0.0144686 31.5315 0.941019 33.7647 2.58812 35.4118C4.23522 37.0589 6.46838 37.9855 8.79773 37.9882H29.202C31.5313 37.9855 33.7645 37.0589 35.4116 35.4118C37.0587 33.7647 37.9852 31.5315 37.988 29.2022V22.0319C37.988 21.5595 37.8003 21.1064 37.4663 20.7724C37.1322 20.4383 36.6791 20.2507 36.2067 20.2507Z" fill="#3A3A3A" fill-opacity="0.72"/>
<path d="M36.1698 1.50498e-07H25.0964C24.63 -8.92984e-05 24.1821 0.182782 23.849 0.509323C23.516 0.835865 23.3243 1.28002 23.3152 1.74637C23.2966 2.74609 24.1375 3.5625 25.1365 3.5625H31.9149L17.7287 17.7531C17.3947 18.0872 17.207 18.5402 17.207 19.0126C17.207 19.485 17.3947 19.9381 17.7287 20.2721C18.0628 20.6061 18.5158 20.7938 18.9882 20.7938C19.4606 20.7938 19.9136 20.6061 20.2477 20.2721L34.4383 6.08594V12.8888C34.4383 13.3612 34.626 13.8143 34.96 14.1484C35.2941 14.4824 35.7471 14.6701 36.2196 14.6701C36.692 14.6701 37.145 14.4824 37.4791 14.1484C37.8131 13.8143 38.0008 13.3612 38.0008 12.8888V1.83023C38.0008 1.58982 37.9534 1.35177 37.8614 1.12966C37.7694 0.90756 37.6345 0.705764 37.4645 0.535801C37.2945 0.365838 37.0926 0.23104 36.8705 0.139105C36.6483 0.0471711 36.4102 -9.73403e-05 36.1698 1.50498e-07Z" fill="#3A3A3A" fill-opacity="0.72"/>
</g>
<defs>
<clipPath id="clip0_160_2276">
<rect width="38" height="38" fill="white"/>
</clipPath>
</defs>
</svg>
