<svg width="43" height="42" viewBox="0 0 43 42" fill="none" xmlns="http://www.w3.org/2000/svg">
<path d="M11.356 1.3125H9.38066C8.37987 1.3125 7.43881 1.70231 6.73137 2.41041C6.02328 3.1185 5.63281 4.05956 5.63281 5.05969V36.9403C5.63281 39.0062 7.31412 40.6875 9.38066 40.6875H36.451C36.8139 40.6875 37.1072 40.3935 37.1072 40.0312V1.96875C37.1072 1.6065 36.8139 1.3125 36.451 1.3125H11.356ZM35.7947 33.1866H12.0122V2.625H35.7947V33.1866ZM6.94597 5.05969C6.94597 4.41 7.19994 3.79903 7.65997 3.33834C8.12 2.87831 8.73097 2.625 9.38131 2.625H10.7004V33.1866H9.38131C9.14441 33.1866 8.91144 33.2115 8.68306 33.2548C8.60694 33.2692 8.53475 33.2968 8.45928 33.3158C8.30966 33.3539 8.16069 33.3933 8.01697 33.4497C7.931 33.4832 7.85028 33.5285 7.76694 33.5685C7.64094 33.6295 7.51625 33.6912 7.39681 33.766C7.31347 33.8185 7.23537 33.8789 7.15531 33.938C7.08641 33.9892 7.01159 34.0312 6.94531 34.0876V5.05969H6.94597ZM35.7947 39.375H9.38066C8.03797 39.375 6.94531 38.283 6.94531 36.9403C6.94531 36.286 7.19928 35.6724 7.65669 35.215C8.12394 34.753 8.73622 34.4991 9.38066 34.4991H35.7947V39.375Z" fill="#3A3A3A" fill-opacity="0.72"/>
<path d="M15.9492 15.8785L17.473 16.0892C17.578 16.4107 17.7073 16.7231 17.8595 17.0237L16.9316 18.2495C16.7334 18.5107 16.7583 18.8782 16.9906 19.1099L18.7678 20.887C19.0001 21.1193 19.3676 21.1436 19.6281 20.9461L20.854 20.0181C21.1545 20.1697 21.4669 20.299 21.7878 20.4047L21.9991 21.9285C22.0438 22.2533 22.3213 22.4948 22.6488 22.4948H25.1616C25.4891 22.4948 25.7667 22.2533 25.8113 21.9285L26.0226 20.4047C26.3435 20.299 26.6559 20.1704 26.9564 20.0181L28.183 20.9461C28.4442 21.1436 28.8117 21.1193 29.0433 20.887L30.8198 19.1099C31.0521 18.8782 31.077 18.5114 30.8795 18.2495L29.9516 17.023C30.1032 16.7225 30.2331 16.4101 30.3381 16.0892L31.8613 15.8785C32.1861 15.8332 32.4276 15.5563 32.4276 15.2282V12.7154C32.4276 12.3873 32.1861 12.1103 31.8613 12.065L30.3381 11.8544C30.2331 11.5335 30.1038 11.2211 29.9516 10.9205L30.8795 9.69401C31.077 9.43282 31.0521 9.06532 30.8198 8.83367L29.0433 7.05654C28.8117 6.82423 28.4448 6.80061 28.183 6.99748L26.9564 7.92542C26.6559 7.77382 26.3435 7.64389 26.0226 7.53889L25.8113 6.01507C25.7667 5.69023 25.4891 5.44873 25.1616 5.44873H22.6488C22.3213 5.44873 22.0438 5.69023 21.9991 6.01507L21.7878 7.53889C21.4669 7.64454 21.1545 7.77317 20.854 7.92542L19.6281 6.99748C19.3682 6.80061 19.0014 6.82489 18.7678 7.05654L16.9906 8.83367C16.7583 9.06532 16.7334 9.43282 16.9316 9.69401L17.8595 10.9205C17.7079 11.2211 17.578 11.5335 17.473 11.8544L15.9492 12.065C15.6243 12.1103 15.3828 12.3873 15.3828 12.7154V15.2282C15.3828 15.5563 15.6243 15.8332 15.9492 15.8785ZM16.6953 13.287L18.0734 13.096C18.3373 13.0593 18.5525 12.867 18.6194 12.6091C18.7474 12.1097 18.9443 11.6345 19.2042 11.1968C19.34 10.9678 19.3243 10.6784 19.1628 10.4664L18.3241 9.35801L19.2928 8.38939L20.4012 9.22807C20.6138 9.38951 20.9025 9.40592 21.1316 9.26942C21.5706 9.00954 22.0457 8.81267 22.5438 8.6847C22.8017 8.61842 22.994 8.40317 23.0301 8.13936L23.2211 6.76123H24.5907L24.7816 8.13936C24.8184 8.40317 25.0107 8.61842 25.2679 8.68535C25.766 8.81332 26.2411 9.00954 26.6802 9.27007C26.9092 9.40592 27.1973 9.38951 27.4106 9.22873L28.5196 8.39004L29.4876 9.35867L28.6489 10.4671C28.4888 10.6797 28.4717 10.9678 28.6082 11.1975C28.8681 11.6372 29.065 12.1129 29.1929 12.6104C29.2599 12.8683 29.4751 13.0606 29.7389 13.0973L31.1164 13.2883V14.6579L29.7389 14.8489C29.4751 14.8856 29.2599 15.0779 29.1929 15.3358C29.0656 15.8339 28.8688 16.309 28.6082 16.7487C28.4724 16.9777 28.4888 17.2665 28.6489 17.4791L29.4876 18.5875L28.519 19.5561L27.4106 18.7174C27.1979 18.5567 26.9092 18.5403 26.6802 18.6761C26.2418 18.936 25.766 19.1322 25.2679 19.2602C25.01 19.3265 24.8177 19.5424 24.7816 19.8062L24.5907 21.1843H23.2211L23.0301 19.8062C22.9933 19.5424 22.8011 19.3271 22.5438 19.2608C22.0444 19.1322 21.5699 18.936 21.1316 18.6761C20.9012 18.5396 20.6131 18.556 20.4012 18.7174L19.2928 19.5561L18.3241 18.5875L19.1628 17.4791C19.3243 17.2665 19.3407 16.9777 19.2042 16.748C18.9443 16.3103 18.7481 15.8359 18.6194 15.3358C18.5525 15.0779 18.3373 14.8856 18.0734 14.8489L16.6953 14.6579V13.2883V13.287Z" fill="#3A3A3A" fill-opacity="0.72"/>
<path d="M23.9039 17.6996C25.9593 17.6996 27.6314 16.0275 27.6314 13.9721C27.6314 11.9168 25.9593 10.2446 23.9039 10.2446C21.8486 10.2446 20.1758 11.9168 20.1758 13.9721C20.1758 16.0275 21.8479 17.6996 23.9039 17.6996ZM23.9039 11.5571C25.2355 11.5571 26.3189 12.6406 26.3189 13.9721C26.3189 15.3037 25.2361 16.3871 23.9039 16.3871C22.5717 16.3871 21.4883 15.3037 21.4883 13.9721C21.4883 12.6406 22.5717 11.5571 23.9039 11.5571Z" fill="#3A3A3A" fill-opacity="0.72"/>
<path d="M31.4869 25.5693H16.3203C15.9574 25.5693 15.6641 25.8633 15.6641 26.2256C15.6641 26.5878 15.9574 26.8818 16.3203 26.8818H31.4869C31.8498 26.8818 32.1432 26.5878 32.1432 26.2256C32.1432 25.8633 31.8498 25.5693 31.4869 25.5693Z" fill="#3A3A3A" fill-opacity="0.72"/>
<path d="M28.3935 28.5344H19.4141C19.0512 28.5344 18.7578 28.8284 18.7578 29.1907C18.7578 29.5529 19.0512 29.8469 19.4141 29.8469H28.3935C28.7564 29.8469 29.0498 29.5529 29.0498 29.1907C29.0498 28.8284 28.7564 28.5344 28.3935 28.5344Z" fill="#3A3A3A" fill-opacity="0.72"/>
</svg>
