<svg width="51" height="50" viewBox="0 0 51 50" fill="none" xmlns="http://www.w3.org/2000/svg">
<path d="M29.3839 25.2714L47.096 9.3865C46.5541 9.07037 45.9383 8.90286 45.3109 8.90088H5.68361C5.05619 8.90285 4.4404 9.07036 3.89844 9.3865L21.6105 25.2714C23.795 27.3244 27.1994 27.3244 29.3839 25.2714Z" fill="#007E7E"/>
<path d="M48.6088 10.9175L34.8359 23.2697L48.7095 38.8955C49.0651 38.206 49.2496 37.4411 49.2476 36.6654V13.3342C49.251 12.4864 49.0307 11.6528 48.6088 10.9175Z" fill="#007E7E"/>
<path d="M2.38882 10.9175C1.967 11.6528 1.74666 12.4864 1.75004 13.3342V36.6654C1.74804 37.4411 1.93259 38.206 2.28812 38.8954L16.1617 23.2697L2.38882 10.9175Z" fill="#007E7E"/>
<path d="M30.6368 27.0386C27.75 29.7511 23.2516 29.7511 20.3647 27.0386L17.7415 24.686L3.70703 40.493C4.29309 40.8854 4.98187 41.0962 5.68716 41.0991H45.3144C46.0197 41.0962 46.7085 40.8854 47.2945 40.493L33.26 24.686L30.6368 27.0386Z" fill="#007E7E"/>
</svg>
