<svg width="39" height="38" viewBox="0 0 39 38" fill="none" xmlns="http://www.w3.org/2000/svg">
<path d="M16.778 34.9219H3.91241C3.49211 34.9219 3.15137 35.2626 3.15137 35.6829V36.6824C3.15137 37.1027 3.49211 37.4434 3.91241 37.4434H16.7779C17.1982 37.4434 17.5389 37.1027 17.5389 36.6824V35.6829C17.539 35.2626 17.1982 34.9219 16.778 34.9219Z" stroke="#0F766E" stroke-width="1.11329" stroke-miterlimit="10" stroke-linecap="round" stroke-linejoin="round"/>
<path d="M14.5405 31.9771H6.15009C5.3005 31.9771 4.61182 32.6657 4.61182 33.5153V34.9216H16.0788V33.5153C16.0788 32.6657 15.3901 31.9771 14.5405 31.9771Z" stroke="#0F766E" stroke-width="1.11329" stroke-miterlimit="10" stroke-linecap="round" stroke-linejoin="round"/>
<path d="M13.038 14.3333H3.90737C3.48981 14.3333 3.15137 14.6718 3.15137 15.0893V18.954C3.15137 19.3716 3.48981 19.7101 3.90737 19.7101H13.038C13.4555 19.7101 13.794 19.3716 13.794 18.954V15.0893C13.794 14.6717 13.4555 14.3333 13.038 14.3333Z" stroke="#0F766E" stroke-width="1.11329" stroke-miterlimit="10" stroke-linecap="round" stroke-linejoin="round"/>
<path d="M9.73344 28.0664V19.7102H7.21191V28.0664C7.21191 28.7627 7.77635 29.3272 8.47268 29.3272C9.169 29.3272 9.73344 28.7627 9.73344 28.0664Z" stroke="#0F766E" stroke-width="1.11329" stroke-miterlimit="10" stroke-linecap="round" stroke-linejoin="round"/>
<path d="M11.3838 14.3333H5.56152V19.71H11.3838V14.3333Z" stroke="#0F766E" stroke-width="1.11329" stroke-miterlimit="10" stroke-linecap="round" stroke-linejoin="round"/>
<path d="M15.8286 21.5833L17.8247 23.5794C18.1107 23.8653 18.5744 23.8653 18.8604 23.5794L19.8758 22.564C20.1618 22.278 20.1618 21.8144 19.8758 21.5283L18.7786 20.4312L15.8286 21.5833Z" stroke="#0F766E" stroke-width="1.11329" stroke-miterlimit="10" stroke-linecap="round" stroke-linejoin="round"/>
<path d="M25.4717 23.5792C25.7577 23.8652 26.2214 23.8652 26.5073 23.5792L28.49 21.5965C27.1049 21.0601 25.856 20.5765 25.5331 20.4514L24.4562 21.5283C24.1702 21.8142 24.1702 22.2779 24.4562 22.5639L25.4717 23.5792Z" stroke="#0F766E" stroke-width="1.11329" stroke-miterlimit="10" stroke-linecap="round" stroke-linejoin="round"/>
<path d="M27.279 8.80789C25.6539 8.84247 24.2676 8.28056 23.348 7.76644C22.6342 7.36744 21.7655 7.36462 21.052 7.76399C20.1189 8.28627 18.7035 8.85895 17.0449 8.80581C16.9131 8.80158 16.8012 8.90623 16.8008 9.03804C16.8008 9.0396 16.8008 9.04123 16.8008 9.04279V13.7432C16.8008 16.5025 18.9612 19.0228 22.2298 19.0266C25.1396 19.03 27.5206 16.6139 27.5206 13.704V9.04279C27.5206 9.04197 27.5206 9.04116 27.5206 9.04034C27.5204 8.90949 27.4099 8.80514 27.279 8.80789Z" stroke="#0F766E" stroke-width="1.11329" stroke-miterlimit="10" stroke-linecap="round" stroke-linejoin="round"/>
<path d="M31.8715 12.8068C31.5998 12.6026 31.4939 12.249 31.6121 11.9304C31.7153 11.6518 31.7717 11.3506 31.7717 11.0362C31.7717 10.4381 31.5676 9.88777 31.2253 9.45092C31.0078 9.17326 31.0078 8.78755 31.2253 8.50989C31.5676 8.07296 31.7717 7.5227 31.7717 6.92464C31.7717 6.07067 31.3556 5.31423 30.7151 4.84643C30.2199 4.48461 29.6836 3.92158 29.2836 3.25316C28.2493 1.52437 26.2568 -0.334974 22.7256 1.02695C22.3864 1.15773 22.0096 1.15773 21.6704 1.02695C18.1392 -0.334974 16.1467 1.52437 15.1123 3.25316C14.716 3.91564 14.181 4.48104 13.6808 4.84643C13.0404 5.31431 12.6242 6.07075 12.6242 6.92464C12.6242 7.5227 12.8283 8.07304 13.1706 8.50989C13.3882 8.78755 13.3882 9.17326 13.1706 9.45092C12.8283 9.88777 12.6242 10.4381 12.6242 11.0362C12.6242 11.3512 12.6809 11.6529 12.7845 11.9319C12.9027 12.2502 12.7958 12.6028 12.5245 12.8068C12.0142 13.1905 11.6206 13.7201 11.4033 14.3331H13.0379C13.4554 14.3331 13.7939 14.6717 13.7939 15.0892V18.631C14.0595 18.6886 14.3369 18.7145 14.6222 18.7035C15.9179 18.6537 17.1242 17.708 17.5781 16.499C17.0766 15.6793 16.8009 14.7268 16.8009 13.7432V9.04279V9.03804C16.8009 8.90674 16.9096 8.80135 17.0409 8.80566C18.7015 8.85991 20.1187 8.28649 21.0527 7.76369C21.7658 7.36447 22.6343 7.36729 23.3477 7.76614C24.2681 8.2807 25.6561 8.84336 27.2831 8.80773C27.4137 8.80491 27.5207 8.90971 27.5207 9.04034V9.04279V13.704C27.5207 14.6829 27.2503 15.6055 26.7819 16.3993C27.2052 17.6558 28.4425 18.6523 29.7737 18.7036C31.6431 18.7756 33.1811 17.2815 33.1811 15.4282C33.1811 14.3563 32.6667 13.4049 31.8715 12.8068Z" stroke="#0F766E" stroke-width="1.11329" stroke-miterlimit="10" stroke-linecap="round" stroke-linejoin="round"/>
<path d="M25.4716 23.5794L24.4562 22.564C24.4128 22.5206 24.3767 22.4728 24.3465 22.4224C23.6976 22.7114 22.9816 22.8721 22.23 22.8713C21.4052 22.8703 20.6512 22.7089 19.9846 22.4239C19.9546 22.4737 19.9189 22.5211 19.8758 22.5641L18.8604 23.5795C18.816 23.6239 18.767 23.6606 18.7153 23.6912C19.4154 24.777 20.6475 25.5364 22.2136 25.5381C23.626 25.5398 24.8742 24.7934 25.5959 23.6789C25.5518 23.6507 25.5101 23.6179 25.4716 23.5794Z" stroke="#0F766E" stroke-width="1.11329" stroke-miterlimit="10" stroke-linecap="round" stroke-linejoin="round"/>
<path d="M26.4756 34.0856L23.7726 25.2192C23.2924 25.4245 22.7657 25.5385 22.2136 25.5379C21.6044 25.5372 21.046 25.4214 20.5495 25.2168L17.85 34.073C17.7702 34.3194 17.9014 34.5828 18.1447 34.6718C19.4042 35.1326 20.7988 35.3896 22.3061 35.3914C23.6721 35.3929 24.9826 35.1406 26.1941 34.6796C26.4311 34.5894 26.5537 34.3269 26.4756 34.0856Z" stroke="#0F766E" stroke-width="1.11329" stroke-miterlimit="10" stroke-linecap="round" stroke-linejoin="round"/>
<path d="M23.2583 32.3477L23.6047 35.1433" stroke="#0F766E" stroke-width="1.11329" stroke-miterlimit="10" stroke-linecap="round" stroke-linejoin="round"/>
<path d="M21.0676 32.3477L20.7212 35.1433" stroke="#0F766E" stroke-width="1.11329" stroke-miterlimit="10" stroke-linecap="round" stroke-linejoin="round"/>
<path d="M9.73341 28.066C9.73341 28.7624 9.16898 29.3268 8.47266 29.3268C8.47266 30.075 8.47266 31.02 8.47266 31.9769H13.0561V28.9049C13.0561 27.8785 12.6541 26.8929 11.9364 26.1592L10.0366 24.2173C9.93328 24.3156 9.83182 24.4203 9.73341 24.5312V28.066Z" stroke="#0F766E" stroke-width="1.11329" stroke-miterlimit="10" stroke-linecap="round" stroke-linejoin="round"/>
<path d="M23.5911 37.4432C27.226 37.4432 30.9091 37.4432 34.8837 37.4432C35.4169 37.4432 35.8492 37.011 35.8492 36.4777C35.8492 36.1528 35.8492 28.1427 35.8492 27.8185C35.8492 25.7687 34.5368 23.9767 32.9518 23.3244C32.5913 23.1848 25.8182 20.5616 25.4657 20.4252C25.2603 20.3459 25.124 20.1483 25.1233 19.927L25.1218 18.1661C24.2918 18.7092 23.3012 19.0263 22.2374 19.0263C21.0643 19.0263 20.0348 18.7011 19.1953 18.1582V19.9237C19.1953 20.1445 19.0892 20.2745 18.967 20.3574L11.37 23.3245C10.8471 23.5397 10.2497 23.9507 9.73342 24.5319V28.066C9.73342 28.7624 9.16898 29.3268 8.47266 29.3268C8.47266 30.075 8.47266 31.02 8.47266 31.9769H14.5406C15.3902 31.9769 16.0789 32.6656 16.0789 33.5151V34.9214L16.7779 34.9217C17.1983 34.9217 17.539 35.2624 17.539 35.6827V36.6822C17.539 37.1025 17.1983 37.4432 16.7779 37.4432C18.1938 37.4432 19.5943 37.4432 20.9935 37.4432" stroke="#0F766E" stroke-width="1.11329" stroke-miterlimit="10" stroke-linecap="round" stroke-linejoin="round"/>
<path d="M31.2651 33.2758V37.4433C32.4482 37.4433 33.6513 37.4433 34.8832 37.4433C35.4164 37.4433 35.8487 37.0111 35.8487 36.4778C35.8487 36.153 35.8487 28.1428 35.8487 27.8186C35.8487 26.3917 35.2124 25.0903 34.2913 24.2107L32.3849 26.1593C31.6671 26.893 31.2651 27.8786 31.2651 28.9051V30.6782" stroke="#0F766E" stroke-width="1.11329" stroke-miterlimit="10" stroke-linecap="round" stroke-linejoin="round"/>
</svg>
