<svg width="38" height="38" viewBox="0 0 38 38" fill="none" xmlns="http://www.w3.org/2000/svg">
<g clip-path="url(#clip0_2174_5961)">
<path fill-rule="evenodd" clip-rule="evenodd" d="M34.4844 10.5469C35.1316 10.5469 35.6562 10.0222 35.6562 9.375V7.96773C35.6562 5.84823 34.2341 3.99243 32.1874 3.44141L19.5547 0.0402939C19.3551 -0.0134313 19.1449 -0.0134313 18.9453 0.040294L6.31263 3.44141C4.266 3.99243 2.84375 5.84823 2.84375 7.96774V9.375C2.84375 10.0222 3.36842 10.5469 4.01562 10.5469H6.35938V12.8906C6.35938 13.5379 6.88405 14.0625 7.53125 14.0625V25.7812H5.1875C4.5403 25.7812 4.01562 26.3059 4.01562 26.9531V30.4688C2.074 30.4688 0.5 32.0427 0.5 33.9844V36.3281C0.5 36.9754 1.02467 37.5 1.67188 37.5H36.8281C37.4754 37.5 38 36.9754 38 36.3281V33.9844C38 32.0427 36.4261 30.4688 34.4844 30.4688V26.9531C34.4844 26.3059 33.9597 25.7812 33.3125 25.7812H30.9688V14.0625C31.616 14.0625 32.1406 13.5379 32.1406 12.8906V10.5469H34.4844ZM28.625 14.0625V25.7812H23.9375V14.0625H28.625ZM29.7969 11.7188V10.5469H8.70312V11.7188H29.7969ZM6.35938 28.125V30.4688H32.1406V28.125H6.35938ZM21.5938 14.0625V25.7812H16.9062V14.0625H21.5938ZM14.5625 14.0625V25.7812H9.875V14.0625H14.5625ZM33.3125 8.20312V7.96773C33.3125 6.90798 32.6014 5.98008 31.578 5.70457L19.25 2.38548L6.92193 5.70457C5.89863 5.98008 5.1875 6.90798 5.1875 7.96774V8.20312H7.52904H7.53125H33.3125ZM4.01562 32.8125C3.36842 32.8125 2.84375 33.3371 2.84375 33.9844V35.1562H35.6562V33.9844C35.6562 33.3371 35.1316 32.8125 34.4844 32.8125H4.01562Z" fill="#0F766E"/>
</g>
<defs>
<clipPath id="clip0_2174_5961">
<rect width="37.5" height="37.5" fill="white" transform="translate(0.5)"/>
</clipPath>
</defs>
</svg>
