<svg width="39" height="38" viewBox="0 0 39 38" fill="none" xmlns="http://www.w3.org/2000/svg">
<path d="M21.875 26.125H23.0625V38H21.875V26.125Z" fill="#0F766E"/>
<path d="M18.9062 29.6875H20.0938V38H18.9062V29.6875Z" fill="#0F766E"/>
<path d="M19.5 14.8438C18.5555 14.8428 17.6499 14.4672 16.982 13.7993C16.3141 13.1314 15.9384 12.2258 15.9375 11.2812V10.6875C15.9375 9.74267 16.3128 8.83653 16.9809 8.16843C17.649 7.50033 18.5552 7.125 19.5 7.125C20.4448 7.125 21.351 7.50033 22.0191 8.16843C22.6872 8.83653 23.0625 9.74267 23.0625 10.6875V11.2812C23.0616 12.2258 22.6859 13.1314 22.018 13.7993C21.3501 14.4672 20.4445 14.8428 19.5 14.8438ZM19.5 8.3125C18.8701 8.3125 18.266 8.56272 17.8206 9.00812C17.3752 9.45352 17.125 10.0576 17.125 10.6875V11.2812C17.125 11.9111 17.3752 12.5152 17.8206 12.9606C18.266 13.406 18.8701 13.6562 19.5 13.6562C20.1299 13.6562 20.734 13.406 21.1794 12.9606C21.6248 12.5152 21.875 11.9111 21.875 11.2812V10.6875C21.875 10.0576 21.6248 9.45352 21.1794 9.00812C20.734 8.56272 20.1299 8.3125 19.5 8.3125Z" fill="#0F766E"/>
<path d="M23.9531 28.5C23.402 28.5 22.8734 28.2811 22.4837 27.8913C22.0939 27.5016 21.875 26.973 21.875 26.4219V20.7812H23.0625V26.4219C23.0625 26.6581 23.1563 26.8846 23.3234 27.0516C23.4904 27.2187 23.7169 27.3125 23.9531 27.3125C24.1893 27.3125 24.4159 27.2187 24.5829 27.0516C24.7499 26.8846 24.8438 26.6581 24.8438 26.4219V18.4062C24.8438 17.9338 24.6561 17.4808 24.322 17.1467C23.988 16.8127 23.5349 16.625 23.0625 16.625H15.9375C15.4651 16.625 15.012 16.8127 14.678 17.1467C14.3439 17.4808 14.1562 17.9338 14.1562 18.4062V26.4219C14.1562 26.6581 14.2501 26.8846 14.4171 27.0516C14.5841 27.2187 14.8107 27.3125 15.0469 27.3125C15.2831 27.3125 15.5096 27.2187 15.6766 27.0516C15.8437 26.8846 15.9375 26.6581 15.9375 26.4219V20.7812H17.125V26.4219C17.125 26.973 16.9061 27.5016 16.5163 27.8913C16.1266 28.2811 15.598 28.5 15.0469 28.5C14.4957 28.5 13.9671 28.2811 13.5774 27.8913C13.1877 27.5016 12.9687 26.973 12.9688 26.4219V18.4062C12.9697 17.6192 13.2828 16.8646 13.8393 16.3081C14.3959 15.7515 15.1504 15.4384 15.9375 15.4375H23.0625C23.8496 15.4384 24.6041 15.7515 25.1607 16.3081C25.7172 16.8646 26.0303 17.6192 26.0312 18.4062V26.4219C26.0312 26.973 25.8123 27.5016 25.4226 27.8913C25.0329 28.2811 24.5043 28.5 23.9531 28.5Z" fill="#0F766E"/>
<path d="M15.9375 26.125H17.125V38H15.9375V26.125Z" fill="#0F766E"/>
<path d="M33.1562 24.3438H34.3438V36.2188H33.1562V24.3438Z" fill="#0F766E"/>
<path d="M30.1875 27.9062H31.375V36.2188H30.1875V27.9062Z" fill="#0F766E"/>
<path d="M30.7812 13.0625C29.8367 13.0616 28.9311 12.6859 28.2632 12.018C27.5953 11.3501 27.2197 10.4445 27.2188 9.5V8.90625C27.2188 7.96142 27.5941 7.05528 28.2622 6.38718C28.9303 5.71908 29.8364 5.34375 30.7812 5.34375C31.7261 5.34375 32.6322 5.71908 33.3003 6.38718C33.9684 7.05528 34.3438 7.96142 34.3438 8.90625V9.5C34.3428 10.4445 33.9672 11.3501 33.2993 12.018C32.6314 12.6859 31.7258 13.0616 30.7812 13.0625ZM30.7812 6.53125C30.1514 6.53125 29.5473 6.78147 29.1019 7.22687C28.6565 7.67227 28.4062 8.27636 28.4062 8.90625V9.5C28.4062 10.1299 28.6565 10.734 29.1019 11.1794C29.5473 11.6248 30.1514 11.875 30.7812 11.875C31.4111 11.875 32.0152 11.6248 32.4606 11.1794C32.906 10.734 33.1562 10.1299 33.1562 9.5V8.90625C33.1562 8.27636 32.906 7.67227 32.4606 7.22687C32.0152 6.78147 31.4111 6.53125 30.7812 6.53125Z" fill="#0F766E"/>
<path d="M35.2346 26.7188C34.6835 26.7188 34.1549 26.4998 33.7652 26.1101C33.3755 25.7204 33.1565 25.1918 33.1565 24.6406V19H34.344V24.6406C34.344 24.8768 34.4378 25.1034 34.6049 25.2704C34.7719 25.4374 34.9984 25.5312 35.2346 25.5312C35.4708 25.5312 35.6974 25.4374 35.8644 25.2704C36.0314 25.1034 36.1253 24.8768 36.1253 24.6406V16.625C36.1253 16.1526 35.9376 15.6995 35.6035 15.3655C35.2695 15.0314 34.8164 14.8438 34.344 14.8438H27.219C26.7853 14.8433 26.3665 15.0017 26.0416 15.2891L25.2549 14.3984C25.7973 13.92 26.4957 13.6561 27.219 13.6563H34.344C35.1311 13.6572 35.8856 13.9703 36.4422 14.5268C36.9987 15.0834 37.3118 15.8379 37.3128 16.625V24.6406C37.3128 25.1918 37.0938 25.7204 36.7041 26.1101C36.3144 26.4998 35.7858 26.7188 35.2346 26.7188Z" fill="#0F766E"/>
<path d="M27.2188 19H28.4062V36.2188H27.2188V19Z" fill="#0F766E"/>
<path d="M7.625 27.9062H8.8125V36.2188H7.625V27.9062Z" fill="#0F766E"/>
<path d="M8.21875 13.0625C7.27421 13.0616 6.36862 12.6859 5.70072 12.018C5.03283 11.3501 4.65719 10.4445 4.65625 9.5V8.90625C4.65625 7.96142 5.03158 7.05528 5.69968 6.38718C6.36778 5.71908 7.27392 5.34375 8.21875 5.34375C9.16358 5.34375 10.0697 5.71908 10.7378 6.38718C11.4059 7.05528 11.7812 7.96142 11.7812 8.90625V9.5C11.7803 10.4445 11.4047 11.3501 10.7368 12.018C10.0689 12.6859 9.16329 13.0616 8.21875 13.0625ZM8.21875 6.53125C7.58886 6.53125 6.98477 6.78147 6.53937 7.22687C6.09397 7.67227 5.84375 8.27636 5.84375 8.90625V9.5C5.84375 10.1299 6.09397 10.734 6.53937 11.1794C6.98477 11.6248 7.58886 11.875 8.21875 11.875C8.84864 11.875 9.45273 11.6248 9.89813 11.1794C10.3435 10.734 10.5938 10.1299 10.5938 9.5V8.90625C10.5938 8.27636 10.3435 7.67227 9.89813 7.22687C9.45273 6.78147 8.84864 6.53125 8.21875 6.53125Z" fill="#0F766E"/>
<path d="M14.75 7.71875C13.8055 7.71781 12.8999 7.34217 12.232 6.67428C11.5641 6.00638 11.1884 5.10079 11.1875 4.15625V3.5625C11.1875 2.61767 11.5628 1.71153 12.2309 1.04343C12.899 0.375334 13.8052 0 14.75 0C15.6948 0 16.601 0.375334 17.2691 1.04343C17.9372 1.71153 18.3125 2.61767 18.3125 3.5625V4.15625C18.3116 5.10079 17.9359 6.00638 17.268 6.67428C16.6001 7.34217 15.6945 7.71781 14.75 7.71875ZM14.75 1.1875C14.1201 1.1875 13.516 1.43772 13.0706 1.88312C12.6252 2.32852 12.375 2.93261 12.375 3.5625V4.15625C12.375 4.78614 12.6252 5.39023 13.0706 5.83563C13.516 6.28103 14.1201 6.53125 14.75 6.53125C15.3799 6.53125 15.984 6.28103 16.4294 5.83563C16.8748 5.39023 17.125 4.78614 17.125 4.15625V3.5625C17.125 2.93261 16.8748 2.32852 16.4294 1.88312C15.984 1.43772 15.3799 1.1875 14.75 1.1875Z" fill="#0F766E"/>
<path d="M24.25 7.71875C23.3055 7.71781 22.3999 7.34217 21.732 6.67428C21.0641 6.00638 20.6884 5.10079 20.6875 4.15625V3.5625C20.6875 2.61767 21.0628 1.71153 21.7309 1.04343C22.399 0.375334 23.3052 0 24.25 0C25.1948 0 26.101 0.375334 26.7691 1.04343C27.4372 1.71153 27.8125 2.61767 27.8125 3.5625V4.15625C27.8116 5.10079 27.4359 6.00638 26.768 6.67428C26.1001 7.34217 25.1945 7.71781 24.25 7.71875ZM24.25 1.1875C23.6201 1.1875 23.016 1.43772 22.5706 1.88312C22.1252 2.32852 21.875 2.93261 21.875 3.5625V4.15625C21.875 4.78614 22.1252 5.39023 22.5706 5.83563C23.016 6.28103 23.6201 6.53125 24.25 6.53125C24.8799 6.53125 25.484 6.28103 25.9294 5.83563C26.3748 5.39023 26.625 4.78614 26.625 4.15625V3.5625C26.625 2.93261 26.3748 2.32852 25.9294 1.88312C25.484 1.43772 24.8799 1.1875 24.25 1.1875Z" fill="#0F766E"/>
<path d="M3.76562 26.7188C3.21447 26.7188 2.68589 26.4998 2.29617 26.1101C1.90644 25.7204 1.6875 25.1918 1.6875 24.6406V16.625C1.68844 15.8379 2.00152 15.0834 2.55807 14.5268C3.11461 13.9703 3.86918 13.6572 4.65625 13.6563H11.7812C12.5045 13.6561 13.2029 13.92 13.7454 14.3984L12.9587 15.2891C12.6338 15.0017 12.2149 14.8433 11.7812 14.8438H4.65625C4.18383 14.8438 3.73077 15.0314 3.39672 15.3655C3.06267 15.6995 2.875 16.1526 2.875 16.625V24.6406C2.875 24.8768 2.96883 25.1034 3.13586 25.2704C3.30288 25.4374 3.52942 25.5312 3.76562 25.5312C4.00183 25.5312 4.22837 25.4374 4.39539 25.2704C4.56242 25.1034 4.65625 24.8768 4.65625 24.6406V19H5.84375V24.6406C5.84375 25.1918 5.62481 25.7204 5.23508 26.1101C4.84536 26.4998 4.31678 26.7188 3.76562 26.7188Z" fill="#0F766E"/>
<path d="M4.65625 24.3438H5.84375V36.2188H4.65625V24.3438Z" fill="#0F766E"/>
<path d="M10.5938 19H11.7812V36.2188H10.5938V19Z" fill="#0F766E"/>
</svg>
