<svg width="44" height="43" viewBox="0 0 44 43" fill="none" xmlns="http://www.w3.org/2000/svg">
<path d="M36.559 35.2497C36.447 34.1178 35.8405 33.1066 34.8945 32.4755L28.4813 28.2004C26.9841 27.2027 24.9825 27.4044 23.7116 28.6729L21.6621 30.7396C21.1958 30.9021 19.0393 29.988 16.2626 27.2101C13.4847 24.431 12.583 22.2928 12.701 21.8672L14.8035 19.7647C16.0731 18.4951 16.2724 16.4886 15.2759 14.9951L11.0009 8.58185C10.3697 7.63577 9.35845 7.02932 8.22668 6.91737C7.09239 6.80416 5.98766 7.20275 5.18426 8.00614L2.01267 11.1777C-2.33377 15.5242 3.32661 25.0757 10.863 32.6134C15.9866 37.737 27.1987 46.5699 32.2987 41.4638L35.4703 38.2922C36.2736 37.49 36.6709 36.3803 36.559 35.2497Z" fill="#007E7E"/>
<path d="M24.6035 0C23.9072 0 23.3438 0.563451 23.3438 1.25977C23.3438 1.95608 23.9072 2.51953 24.6035 2.51953C33.6335 2.51953 40.9805 9.86649 40.9805 18.8965C40.9805 19.5928 41.5439 20.1563 42.2402 20.1563C42.9366 20.1563 43.5 19.5928 43.5 18.8965C43.5 8.47638 35.0236 0 24.6035 0ZM24.6035 5.03907C23.9072 5.03907 23.3438 5.60252 23.3438 6.29883C23.3438 6.99515 23.9072 7.5586 24.6035 7.5586C30.8556 7.5586 35.9414 12.6444 35.9414 18.8965C35.9414 19.5928 36.5049 20.1563 37.2012 20.1563C37.8975 20.1563 38.4609 19.5928 38.4609 18.8965C38.4609 11.2555 32.2445 5.03907 24.6035 5.03907ZM24.6035 10.0781C23.9072 10.0781 23.3438 10.6416 23.3438 11.3379C23.3438 12.0342 23.9072 12.5977 24.6035 12.5977C28.0765 12.5977 30.9023 15.4235 30.9023 18.8965C30.9023 19.5928 31.4658 20.1563 32.1621 20.1563C32.8584 20.1563 33.4219 19.5928 33.4219 18.8965C33.4219 14.0346 29.4655 10.0781 24.6035 10.0781ZM24.6035 15.1172C23.9072 15.1172 23.3438 15.6806 23.3438 16.377C23.3438 17.0733 23.9072 17.6367 24.6035 17.6367C25.2986 17.6367 25.8633 18.2014 25.8633 18.8965C25.8633 19.5928 26.4267 20.1563 27.123 20.1563C27.8194 20.1563 28.3828 19.5928 28.3828 18.8965C28.3828 16.8125 26.6875 15.1172 24.6035 15.1172Z" fill="#007E7E"/>
</svg>
