<svg width="32" height="33" viewBox="0 0 32 33" fill="none" xmlns="http://www.w3.org/2000/svg"> <path d="M23.0187 24.298C22.7446 24.298 22.5223 24.52 22.5223 24.7943V30.3659C22.5223 30.8147 22.1569 31.1801 21.7078 31.1801H1.93217C1.4831 31.1801 1.11765 30.8147 1.11765 30.3659V2.63475C1.11765 2.18592 1.48311 1.82047 1.93217 1.82047H16.9161V5.90738C16.9161 6.47738 17.3798 6.94074 17.9495 6.94074H22.5223V10.3113C22.5223 10.5856 22.7446 10.8076 23.0187 10.8076C23.2927 10.8076 23.515 10.5856 23.515 10.3113V6.44491C23.515 6.34177 23.4586 6.18032 23.358 6.08502C23.3078 6.03741 17.7978 1.00028 17.7479 0.957718C17.7477 0.957599 17.7475 0.957474 17.7473 0.957355C17.6588 0.876688 17.5129 0.82782 17.4132 0.82782H1.93217C0.935645 0.82782 0.125 1.63822 0.125 2.63475V30.3659C0.125 31.3624 0.935645 32.1728 1.93217 32.1728H21.7078C22.7043 32.1728 23.515 31.3624 23.515 30.3659V24.7943C23.515 24.52 23.2927 24.298 23.0187 24.298ZM17.9495 5.9481C17.927 5.9481 17.9088 5.92968 17.9088 5.90738V2.44923C18.3753 2.87543 21.4415 5.67671 21.7386 5.9481H17.9495Z" fill="#FFFFFFFF"/> <path d="M3.08617 5.47507H11.7869C12.0609 5.47507 12.2832 5.25308 12.2832 4.97875C12.2832 4.70441 12.0609 4.48242 11.7869 4.48242H3.08617C2.81207 4.48242 2.58984 4.70441 2.58984 4.97875C2.58984 5.25308 2.81207 5.47507 3.08617 5.47507Z" fill="#FFFFFFFF"/> <path d="M20.711 9.5872C20.711 9.31287 20.4888 9.09088 20.2147 9.09088H3.08617C2.81207 9.09088 2.58984 9.31287 2.58984 9.5872C2.58984 9.86154 2.81207 10.0835 3.08617 10.0835H20.2147C20.4888 10.0835 20.711 9.86154 20.711 9.5872Z" fill="#FFFFFFFF"/> <path d="M11.7869 13.6993H3.08617C2.81207 13.6993 2.58984 13.9213 2.58984 14.1957C2.58984 14.47 2.81207 14.692 3.08617 14.692H11.7869C12.0609 14.692 12.2832 14.47 12.2832 14.1957C12.2832 13.9213 12.0609 13.6993 11.7869 13.6993Z" fill="#FFFFFFFF"/> <path d="M3.08617 19.3003H11.7869C12.0609 19.3003 12.2832 19.0783 12.2832 18.8039C12.2832 18.5296 12.0609 18.3076 11.7869 18.3076H3.08617C2.81207 18.3076 2.58984 18.5296 2.58984 18.8039C2.58984 19.0783 2.81207 19.3003 3.08617 19.3003Z" fill="#FFFFFFFF"/> <path d="M13.7293 22.9161H3.08617C2.81207 22.9161 2.58984 23.1381 2.58984 23.4125C2.58984 23.6868 2.81207 23.9088 3.08617 23.9088H13.7293C14.0034 23.9088 14.2256 23.6868 14.2256 23.4125C14.2256 23.1381 14.0033 22.9161 13.7293 22.9161Z" fill="#FFFFFFFF"/> <path d="M2.58984 28.0207C2.58984 28.2951 2.81207 28.5171 3.08617 28.5171H20.2147C20.4888 28.5171 20.711 28.2951 20.711 28.0207C20.711 27.7464 20.4888 27.5244 20.2147 27.5244H3.08617C2.81207 27.5244 2.58984 27.7464 2.58984 28.0207Z" fill="#FFFFFFFF"/> <path d="M18.3274 12.8046C16.1106 13.2767 14.6181 15.1901 14.5085 17.2759C14.4942 17.5497 14.7043 17.7833 14.9782 17.7979C14.9869 17.7984 14.9959 17.7984 15.0046 17.7984C15.2668 17.7984 15.4859 17.5929 15.4997 17.3282C15.5876 15.6518 16.7943 14.1458 18.5339 13.7759C18.8019 13.7187 18.9732 13.4551 18.916 13.187C18.8588 12.919 18.5961 12.7469 18.3274 12.8046Z" fill="#FFFFFFFF"/> <path d="M31.0491 23.8233L30.0828 23.0541C29.8681 22.884 29.556 22.9189 29.3854 23.1331C29.2145 23.3479 29.2501 23.66 29.4644 23.8306L30.4306 24.5998C30.9591 25.0202 31.0474 25.7903 30.6257 26.3195C30.2008 26.853 29.4323 26.9329 28.906 26.5148L25.5306 23.8272L27.0552 21.9122L27.8016 22.5064C28.0159 22.6775 28.3285 22.6421 28.4991 22.4274C28.67 22.2127 28.6346 21.9006 28.4201 21.73L27.2854 20.8265C27.0681 20.6531 26.7563 20.6943 26.588 20.9055L26.5285 20.9801L25.6157 20.2532C26.843 17.4196 26.0405 14.1474 23.5994 12.2092C21.9822 10.9307 19.8972 10.4579 17.912 10.8889C12.3353 12.0753 10.5895 19.2962 15.1068 22.8855C17.612 24.8791 21.207 24.8398 23.6568 22.8475L24.5043 23.5224L24.4449 23.597C24.274 23.8117 24.3094 24.1238 24.5239 24.2945L28.2875 27.2913C29.2414 28.0504 30.6363 27.9007 31.4022 26.938C32.1654 25.9802 32.0074 24.5866 31.0491 23.8233ZM15.7246 22.1085C11.8535 19.0324 13.376 12.8691 18.1209 11.8592C19.8685 11.4791 21.6477 11.9284 22.9889 12.9919C25.4181 14.9204 25.9129 18.3795 24.1183 20.9102L23.9385 21.1545C21.3303 23.9775 17.9679 23.8938 15.7246 22.1085ZM24.9269 21.4862C24.9272 21.4858 24.9275 21.4853 24.9277 21.4849L24.9286 21.4837C24.9297 21.4823 24.9305 21.4807 24.9315 21.4793C25.0073 21.3719 25.0803 21.2628 25.1499 21.1512L25.9089 21.7556L25.1215 22.7449L24.3853 22.1584C24.6508 21.8684 24.8086 21.6535 24.9269 21.4862Z" fill="#FFFFFFFF"/> </svg>