<svg width="596" height="413" viewBox="0 0 596 413" fill="none" xmlns="http://www.w3.org/2000/svg">
<path opacity="0.18" d="M595.998 7.39564L572.717 20.8372L572.716 64.1462L365.905 183.547L350.189 174.474L456.87 112.88V101.868L475.784 90.9476V65.6219L512.462 44.4452C513.999 45.0879 516.155 45.0156 517.54 44.2157C519.075 43.3293 519.075 41.8914 517.54 41.0035C516.004 40.1171 513.514 40.1171 511.977 41.0035C510.592 41.8034 510.468 43.048 511.581 43.936L474.902 65.1128V90.4384L456.87 100.85V60.2959L456.65 60.1686L446.226 54.1511L508.763 18.0445V-22.5599L553.189 -48.2093C554.726 -47.5665 556.882 -47.6372 558.267 -48.4387C559.804 -49.3251 559.804 -50.7631 558.267 -51.651C556.732 -52.5374 554.241 -52.5374 552.705 -51.651C551.321 -50.8511 551.196 -49.608 552.309 -48.72L507.883 -23.0706V17.5338L445.346 53.6388L343.673 -5.06212L343.675 -50.4833C344.53 -50.5383 345.36 -50.7458 346.017 -51.1245C347.552 -52.0109 347.554 -53.4489 346.017 -54.3352C344.481 -55.2216 341.99 -55.2216 340.455 -54.3352C338.919 -53.4489 338.918 -52.0109 340.455 -51.1245C341.11 -50.7458 341.942 -50.5383 342.795 -50.4833V-4.5545L343.015 -4.42721L404.169 30.881H359.601L323.564 10.0752C324.676 9.18723 324.552 7.94411 323.168 7.14419C321.631 6.25783 319.141 6.25783 317.604 7.14419C316.069 8.03054 316.069 9.46854 317.604 10.3565C318.991 11.1564 321.145 11.2271 322.682 10.5859L359.364 31.7643H405.673V31.7517L455.99 60.8019V112.368L349.308 173.961L335.003 165.702L410.498 122.113C412.035 122.756 414.191 122.684 415.576 121.885C417.111 120.999 417.111 119.561 415.576 118.673C414.04 117.787 411.549 117.787 410.012 118.673C408.628 119.473 408.503 120.718 409.616 121.604L334.12 165.191L320.308 157.217L410.616 105.079H435.159C435.305 105.505 435.663 105.914 436.235 106.245C437.771 107.132 440.262 107.132 441.799 106.245C443.334 105.359 443.334 103.919 441.799 103.033C440.263 102.147 437.772 102.147 436.235 103.033C435.662 103.363 435.305 103.772 435.159 104.199H410.378L410.276 104.259L319.424 156.711L313.85 153.493L313.63 153.618L309.56 155.968L287.922 143.475V126.091L305.799 115.769V115.816H333.85L364.731 97.9866C366.268 98.6294 368.424 98.5571 369.809 97.7572C371.344 96.8708 371.344 95.4328 369.809 94.5449C368.273 93.6586 365.782 93.6586 364.245 94.5449C362.861 95.3448 362.737 96.5895 363.849 97.4759L333.612 114.933L307.245 114.934L359.795 84.5938C361.338 85.2884 363.563 85.2366 364.982 84.4162C366.519 83.5298 366.519 82.0919 364.982 81.2055C363.447 80.3192 360.956 80.3192 359.419 81.2055C358.067 81.985 357.907 83.1904 358.933 84.0736L293.385 121.918V113.553L332.383 91.0372V75.1409L364.135 56.8086C365.672 57.4514 367.828 57.3791 369.213 56.5792C370.748 55.6928 370.75 54.2548 369.213 53.3669C367.676 52.4806 365.187 52.4806 363.65 53.3669C362.263 54.1668 362.141 55.4115 363.254 56.2994L331.502 74.6317V90.528L292.503 113.044V122.426L287.041 125.58L287.039 143.983L308.675 156.475L294.459 164.684L249.936 138.978L249.938 109.756L280.17 92.3007C281.713 92.9953 283.938 92.9435 285.358 92.1247C286.895 91.2383 286.895 89.8004 285.358 88.9124C283.822 88.0261 281.331 88.0261 279.794 88.9124C278.443 89.6919 278.282 90.8989 279.309 91.7805L249.938 108.738V85.1313L273.142 71.7337V27.3277C273.997 27.2727 274.828 27.0653 275.484 26.6865C277.019 25.8002 277.019 24.3622 275.484 23.4743C273.947 22.5879 271.457 22.5879 269.92 23.4743C268.385 24.3606 268.385 25.7986 269.92 26.6865C270.576 27.0653 271.407 27.2712 272.262 27.3277V71.2261L249.938 84.1145L249.939 5.81308H249.058L249.055 139.485L293.575 165.191L277.61 174.408L219.42 140.812L219.421 60.7988L191.451 44.6495L191.452 14.5525L166.754 0.292183C167.866 -0.595749 167.742 -1.84042 166.357 -2.64034C164.822 -3.5267 162.331 -3.5267 160.794 -2.64034C159.259 -1.75398 159.257 -0.316006 160.794 0.571922C162.18 1.37185 164.335 1.44257 165.872 0.799809L190.571 15.0586V45.1555L218.541 61.3049L218.54 141.319L276.728 174.916L264.896 181.748L186.362 136.405L186.363 68.138L186.143 68.0107L116.629 27.8762C117.743 26.9883 117.619 25.7436 116.234 24.9437C114.697 24.0573 112.208 24.0573 110.671 24.9437C109.135 25.83 109.134 27.268 110.671 28.1559C112.057 28.9559 114.212 29.0266 115.749 28.3854L185.483 68.6456L185.482 136.914L185.702 137.041L264.014 182.257L244.838 193.328L114.175 117.89V83.9196L113.954 83.7923L4.5654 20.636C5.67805 19.7481 5.55548 18.5034 4.16937 17.7051C2.63396 16.8187 0.143036 16.8187 -1.39395 17.7051C-2.92937 18.5914 -2.92937 20.0294 -1.39395 20.9158C-0.00939941 21.7157 2.14679 21.788 3.68376 21.1452L113.292 84.4272V118.398L113.514 118.525L186.785 160.83L128.664 160.832L61.3789 121.986C62.4915 121.098 62.369 119.853 60.9828 119.053C59.4474 118.167 56.9565 118.167 55.4195 119.053C53.8841 119.94 53.8841 121.378 55.4195 122.264C56.8056 123.064 58.9603 123.135 60.4972 122.492L128.425 161.712L188.307 161.71L243.95 193.836L221.661 206.706L173.832 179.092H97.0328L9.68398 128.66L-38.7735 128.662L-58.5296 117.256C-57.4169 116.368 -57.5411 115.124 -58.9256 114.325C-60.461 113.438 -62.952 113.438 -64.4889 114.325C-66.0244 115.211 -66.0244 116.649 -64.4889 117.537C-63.1044 118.337 -60.9482 118.407 -59.4113 117.765L-39.0108 129.544L9.44667 129.542L75.4506 167.649H18.4501L-9.00502 151.798C-7.89235 150.91 -8.01492 149.666 -9.40105 148.866C-10.9365 147.98 -13.4274 147.98 -14.9644 148.866C-16.4998 149.752 -16.4998 151.19 -14.9644 152.078C-13.5798 152.878 -11.4252 152.949 -9.88667 152.308L18.2144 168.531H76.9861L96.805 179.973H173.604L186.987 187.701H154.338L154.236 187.759L137.859 197.215L69.6248 197.216L50.3764 186.104H11.7789C11.6327 185.678 11.2744 185.27 10.7024 184.939C9.16695 184.053 6.67601 184.053 5.13902 184.939C3.60361 185.826 3.60361 187.264 5.13902 188.152C6.67444 189.038 9.16537 189.038 10.7024 188.152C11.276 187.822 11.6343 187.413 11.7789 186.986H50.1406L69.3891 198.098L136.334 198.097L117.897 208.742C116.358 208.1 114.204 208.172 112.818 208.97C111.281 209.857 111.281 211.295 112.818 212.181C114.353 213.067 116.844 213.067 118.379 212.181C119.764 211.381 119.888 210.138 118.777 209.25L154.574 188.581H188.512L220.785 207.215L208.86 214.1L209.522 214.482L216.534 218.532L194.226 218.533L165.063 201.695C166.175 200.808 166.051 199.563 164.667 198.764C163.131 197.878 160.64 197.878 159.105 198.764C157.569 199.651 157.568 201.089 159.105 201.975C160.489 202.775 162.644 202.846 164.182 202.205L193.99 219.415L218.06 219.413L234.384 228.838L224.345 234.634H206.541L206.439 234.692L190.888 243.67H179.207L152.826 228.44C154.01 227.549 153.912 226.275 152.499 225.459C150.964 224.571 148.473 224.571 146.938 225.459C145.402 226.345 145.402 227.783 146.938 228.67C148.296 229.454 150.398 229.542 151.929 228.938L178.971 244.55H191.124L191.226 244.492L206.778 235.514H222.819L190.731 254.039H173.406L137.288 233.188H28.3745L-39.1805 194.185C-38.0113 193.295 -38.1134 192.026 -39.52 191.213C-41.0554 190.327 -43.5463 190.327 -45.0833 191.213C-46.6187 192.1 -46.6187 193.537 -45.0833 194.424C-43.7192 195.211 -41.607 195.296 -40.0748 194.686L28.1388 234.068H137.053L173.17 254.919H190.968L191.07 254.861L235.266 229.345L246.859 236.039L196.921 264.872H161.699L132.64 248.094L58.0598 248.096C57.9152 247.668 57.5569 247.261 56.9832 246.93C55.4478 246.043 52.9569 246.043 51.4215 246.93C49.886 247.816 49.886 249.254 51.4215 250.142C52.9569 251.028 55.4478 251.028 56.9848 250.142C57.5568 249.81 57.9151 249.403 58.0613 248.977L132.404 248.976L159.936 264.872H54.8443L54.7437 264.93L-45.4071 322.753C-46.944 322.11 -49.1002 322.182 -50.4848 322.982C-52.0202 323.868 -52.0202 325.306 -50.4848 326.194C-48.9494 327.081 -46.4584 327.081 -44.923 326.194C-43.5385 325.395 -43.4143 324.151 -44.5254 323.263L55.0816 265.754H197.159L197.261 265.696L247.742 236.55L260.915 244.154L191.278 284.361H68.6583L68.5578 284.419L-38.8175 346.413L-163.926 346.414L-236.888 304.288C-235.776 303.401 -235.901 302.157 -237.285 301.357C-238.821 300.471 -241.311 300.471 -242.848 301.357C-244.384 302.244 -244.384 303.682 -242.848 304.57C-241.464 305.37 -239.309 305.44 -237.771 304.799L-164.164 347.296L-38.5818 347.294L-38.4796 347.236L68.8941 285.243H158.214L27.0607 360.964L27.0591 380.897L-25.2581 411.103C-26.7951 410.46 -28.9497 410.532 -30.3342 411.332C-31.8696 412.218 -31.8696 413.656 -30.3342 414.544C-28.7988 415.431 -26.3079 415.431 -24.7709 414.544C-23.3848 413.744 -23.2622 412.5 -24.3749 411.612L27.9408 381.408L27.9424 361.474L159.979 285.244H190.635L124.612 323.364V331.766L93.0191 350.007C91.4821 349.364 89.3259 349.435 87.9414 350.236C86.4044 351.123 86.4044 352.561 87.9414 353.447C89.4768 354.335 91.9677 354.333 93.5031 353.447C94.8877 352.647 95.0118 351.404 93.8992 350.516L111.1 340.585V363.609L11.7207 420.985C10.1822 420.342 8.02756 420.414 6.64301 421.213C5.10759 422.099 5.10759 423.537 6.64301 424.425C8.17842 425.311 10.6693 425.311 12.2063 424.425C13.5909 423.625 13.715 422.38 12.6024 421.494L111.98 364.118V340.078L125.491 332.278V323.876L192.057 285.444L191.837 285.062L261.797 244.67L274.514 252.012L202.646 293.509L202.645 361.778L70.4641 438.093H72.2274L181.666 374.91L181.665 436.653L179.17 438.093H180.934L182.545 437.162L182.546 374.4L203.526 362.288L203.528 294.02L275.397 252.526L286.594 258.991L231.176 290.987V328.413L231.397 328.541L294.407 364.918V377.608L258.773 398.181C257.236 397.539 255.082 397.611 253.697 398.411C252.162 399.297 252.16 400.735 253.697 401.621C255.232 402.508 257.723 402.508 259.26 401.621C260.645 400.822 260.769 399.578 259.656 398.691L295.29 378.119V364.409L295.07 364.281L232.06 327.904V291.498L273.932 267.324L273.931 282.914L254.734 293.996C253.197 293.354 251.043 293.426 249.656 294.226C248.121 295.112 248.121 296.55 249.656 297.438C251.192 298.324 253.683 298.324 255.22 297.438C256.604 296.638 256.728 295.395 255.617 294.507L274.812 283.424V266.816L287.478 259.504L302.453 268.149L302.451 295.302L274.204 311.61V330.383L274.424 330.51L333.887 364.841C332.775 365.729 332.899 366.972 334.283 367.772C335.819 368.658 338.31 368.658 339.845 367.772C341.382 366.885 341.382 365.447 339.845 364.561C338.461 363.761 336.306 363.69 334.767 364.331L275.083 329.873V312.12L302.448 296.321V315.036L339.048 336.169C337.936 337.057 338.061 338.302 339.446 339.1C340.981 339.988 343.472 339.986 345.008 339.1C346.543 338.214 346.543 336.776 345.008 335.889C343.622 335.089 341.467 335.017 339.93 335.66L303.328 314.527L303.33 268.66L313.848 274.732L314.068 274.606L331.18 264.728L346.876 273.791V295.815L388.595 319.9V340.661C387.74 340.716 386.91 340.923 386.255 341.302C384.719 342.188 384.719 343.628 386.255 344.514C387.792 345.4 390.281 345.4 391.818 344.514C393.354 343.628 393.355 342.19 391.818 341.302C391.163 340.923 390.332 340.717 389.477 340.661V319.391L347.758 295.305L347.76 274.3L415.299 313.293L415.297 354.627L378.667 375.776H345.052L344.95 375.834L287.27 409.137C285.733 408.494 283.577 408.566 282.192 409.366C280.657 410.254 280.657 411.69 282.192 412.578C283.728 413.465 286.219 413.465 287.756 412.578C289.14 411.778 289.264 410.535 288.153 409.647L345.289 376.659H377.14L271.177 437.836C269.64 437.194 267.484 437.266 266.1 438.066C266.079 438.079 266.065 438.093 266.046 438.104H272.48L416.177 355.139L416.179 312.787L415.959 312.66L332.063 264.223L348.946 254.475L492.186 337.175V386.52L541.116 414.772C540.004 415.66 540.128 416.903 541.514 417.703C543.049 418.59 545.54 418.59 547.076 417.703C548.611 416.817 548.611 415.379 547.076 414.491C545.691 413.691 543.537 413.62 541.998 414.263L493.066 386.011V336.666L492.846 336.538L349.828 253.967L365.902 244.685L507.556 326.469H592.032L595.997 328.758V327.741L592.269 325.588H507.793L388.216 256.549H412.266L453.078 280.112L484.513 280.11L484.616 280.052L528.216 254.88C529.753 255.523 531.907 255.451 533.293 254.651C534.829 253.764 534.829 252.326 533.293 251.438C531.758 250.552 529.267 250.552 527.73 251.438C526.345 252.238 526.221 253.481 527.332 254.369L484.276 279.228L453.312 279.23L412.5 255.668H386.689L366.783 244.175L409.692 219.401L421.893 226.444L421.892 244.935L452.888 262.831C451.775 263.719 451.899 264.962 453.285 265.762C454.822 266.65 457.311 266.65 458.848 265.762C460.384 264.875 460.384 263.437 458.848 262.551C457.464 261.751 455.308 261.68 453.771 262.322L422.775 244.426V226.954L455.829 246.037H471.482L471.584 245.979L490.247 235.206C491.784 235.847 493.938 235.776 495.323 234.976C496.858 234.09 496.858 232.652 495.323 231.764C493.787 230.878 491.296 230.878 489.759 231.764C488.375 232.564 488.251 233.809 489.363 234.697L471.245 245.157H456.065L410.573 218.891L418.836 214.12L418.176 213.738L392.463 198.893L404.812 191.763H423.487L436.85 199.48C435.786 200.366 435.929 201.587 437.294 202.376C438.83 203.262 441.321 203.262 442.858 202.376C444.393 201.49 444.393 200.052 442.858 199.165C441.454 198.354 439.262 198.295 437.72 198.964L423.722 190.882H406.336L437.829 172.7L511.931 215.483H565.251L565.353 215.425L595.375 198.092C595.566 198.172 595.788 198.207 595.995 198.265V194.212C595.598 194.32 595.219 194.462 594.889 194.652C593.504 195.452 593.38 196.695 594.491 197.583L565.014 214.603H512.171L455.023 181.608L479.483 181.606L503.394 195.412C502.282 196.3 502.406 197.543 503.79 198.343C505.326 199.23 507.817 199.23 509.354 198.343C510.889 197.457 510.889 196.019 509.354 195.133C507.969 194.333 505.815 194.26 504.278 194.903L479.722 180.726L453.5 180.728L438.718 172.194L476.338 150.474L595.998 150.458V149.576L477.861 149.578L492.785 140.963L581.787 140.961L581.889 140.903L596 132.756V131.739L581.551 140.081L492.549 140.082L492.447 140.141L391.584 198.373L380.387 191.909L486.428 130.688L563.979 130.686L564.082 130.628L595.998 112.198V111.18L563.742 129.803L486.19 129.804L486.088 129.863L379.503 191.399L366.786 184.056L573.596 64.6538L573.597 21.3448L595.998 8.41243V7.39564ZM417.078 214.111L313.848 273.711L210.624 214.112L313.852 154.514L417.078 214.111Z" fill="#0F766E"/>
</svg>
