<svg width="46" height="46" viewBox="0 0 46 46" fill="none" xmlns="http://www.w3.org/2000/svg">
<path d="M40.8484 21.3855H45.038C45.3043 21.3855 45.5224 21.1515 45.4981 20.885C44.4973 10.0921 35.9081 1.51098 25.1151 0.501839C24.8487 0.477638 24.6145 0.695575 24.6145 0.961914V5.15151C24.6145 5.95872 24.0656 6.7014 23.2745 6.8306C22.2574 7.00013 21.3855 6.21712 21.3855 5.24024V0.962044C21.3855 0.695705 21.1515 0.477638 20.885 0.501969C10.0921 1.50292 1.51098 10.0921 0.501839 20.885C0.477638 21.1513 0.695575 21.3855 0.961914 21.3855H5.15151C5.95872 21.3855 6.7014 21.9345 6.8306 22.7256C7.00013 23.7426 6.21712 24.6145 5.24024 24.6145H0.962044C0.695705 24.6145 0.477638 24.8486 0.501969 25.1151C1.50292 35.9081 10.0921 44.4892 20.8851 45.4982C21.1515 45.5224 21.3857 45.3045 21.3857 45.0381V40.8485C21.3857 40.0413 21.9346 39.2987 22.7257 39.1695C23.7428 38.9999 24.6146 39.7829 24.6146 40.7598V45.0383C24.6146 45.3046 24.8487 45.5227 25.1152 45.4983C35.9082 44.4974 44.4893 35.9082 45.4983 25.1152C45.5225 24.8488 45.3046 24.6146 45.0383 24.6146H40.7598C39.7831 24.6146 39 23.7428 39.1694 22.7257C39.2985 21.9345 40.0412 21.3855 40.8484 21.3855ZM31.7022 29.3855C31.4035 29.9586 30.8384 30.2654 30.2653 30.2654C29.9181 30.2654 29.571 30.1523 29.2724 29.9263L22.0071 24.2756C21.6196 23.9688 21.3855 23.5006 21.3855 23.0001V13.4018C21.3855 12.5945 21.9345 11.8519 22.7256 11.7227C23.7426 11.5531 24.6145 12.3361 24.6145 13.313V22.209L31.1936 27.327C31.8233 27.8112 32.0736 28.6912 31.7022 29.3855Z" fill="#007E7E"/>
</svg>
