<svg width="43" height="32" viewBox="0 0 43 32" fill="none" xmlns="http://www.w3.org/2000/svg">
<path d="M34.0191 0.952393H8.72309C4.11767 0.952393 0.371094 4.71096 0.371094 9.33011V23.431C0.371094 28.051 4.11767 31.8087 8.72309 31.8087H34.0191C38.6245 31.8087 42.3711 28.0501 42.3711 23.431V9.33011C42.3711 4.71096 38.6245 0.952393 34.0191 0.952393ZM40.6568 23.4318C40.6568 27.1064 37.6791 30.0952 34.0191 30.0952H8.72309C5.06309 30.0952 2.08538 27.1055 2.08538 23.4318V9.33011C2.08538 5.65639 5.06309 2.66668 8.72309 2.66668H34.0191C37.6791 2.66668 40.6568 5.65639 40.6568 9.33011V23.4318Z" fill="#007E7E"/>
<path d="M28.9665 16.0707L17.0908 9.11503C16.8268 8.96075 16.4985 8.95817 16.2319 9.11075C15.9654 9.26332 15.8008 9.54703 15.8008 9.85475V23.7653C15.8008 24.0722 15.9654 24.3567 16.2311 24.5093C16.3631 24.5847 16.5105 24.6225 16.6579 24.6225C16.8079 24.6225 16.9571 24.583 17.0908 24.505L28.9665 17.551C29.2288 17.3976 29.3908 17.1156 29.3908 16.8113C29.3908 16.507 29.2296 16.2242 28.9665 16.0707ZM17.5151 22.2696V11.3496L26.8374 16.8105L17.5151 22.2696Z" fill="#007E7E"/>
</svg>
